<?xml version="1.0" encoding="utf-8"?>
<!-- Generator: Adobe Illustrator 19.1.0, SVG Export Plug-In . SVG Version: 6.00 Build 0)  -->
<svg version="1.1" id="Layer_1" xmlns="http://www.w3.org/2000/svg" xmlns:xlink="http://www.w3.org/1999/xlink" x="0px" y="0px"
	 viewBox="245 -417.2 1623.9 1626.2" style="enable-background:new 245 -417.2 1623.9 1626.2;" xml:space="preserve">
<style type="text/css">
	.st0{fill:#042644;}
	.st1{fill:none;stroke:#C6C6C6;stroke-width:5;stroke-linecap:round;stroke-linejoin:round;stroke-miterlimit:10;}
	.st2{fill:none;stroke:#A0A0A0;stroke-width:5;stroke-linecap:round;stroke-linejoin:round;stroke-miterlimit:10;}
	.st3{fill:none;stroke:#EAEAEA;stroke-width:5;stroke-linecap:round;stroke-linejoin:round;stroke-miterlimit:10;}
	.st4{fill:none;stroke:#D3D3D3;stroke-width:3;stroke-linecap:round;stroke-linejoin:round;stroke-miterlimit:10;}
</style>
<g>
	<polygon class="st0" points="567.9,852.7 957.9,1156.7 1553.9,1004.7 1557.3,-227.3 1394.6,-264.6 1333.9,-245.9 1333.9,-202.6 
		1289.9,-209.9 1289.9,-225.9 1169.3,-251.9 1169.3,-321.3 946.6,-373.3 849.3,-319.9 849.3,-265.9 701.3,-200.6 701.9,-179.3 
		608.6,-196.6 556.6,-169.3 	"/>
</g>
<polygon class="st1" points="567.9,852.7 957.9,1156.7 1553.9,1004.7 1557.3,-227.3 1394.6,-264.6 1333.9,-245.9 1333.9,-202.6 
	1289.9,-209.9 1289.9,-225.9 1169.3,-251.9 1169.3,-321.3 946.6,-373.3 849.3,-319.9 849.3,-265.9 701.3,-200.6 701.9,-179.3 
	608.6,-196.6 556.6,-169.3 "/>
<line class="st1" x1="556.6" y1="-103.9" x2="949.9" y2="-271.3"/>
<line class="st1" x1="949.9" y1="-271.3" x2="1174.6" y2="-226.6"/>
<line class="st1" x1="1174.6" y1="-250.8" x2="1174.6" y2="-219.3"/>
<line class="st1" x1="1174.6" y1="-219.3" x2="1393.8" y2="-178.3"/>
<line class="st1" x1="1394.6" y1="-264.6" x2="1382.9" y2="1048.3"/>
<line class="st2" x1="1383.6" y1="996.7" x2="1554.1" y2="950.6"/>
<line class="st2" x1="1383.6" y1="978.7" x2="1554.1" y2="932.6"/>
<line class="st1" x1="608.6" y1="-196.6" x2="608.6" y2="-126.1"/>
<line class="st1" x1="608.6" y1="-134.6" x2="849.3" y2="-239.5"/>
<line class="st1" x1="849.3" y1="-265.9" x2="849.3" y2="-228.4"/>
<polyline class="st3" points="618.5,-138.9 618.5,-151.9 644.6,-150.3 "/>
<line class="st1" x1="949.9" y1="-271.3" x2="957.9" y2="1156.7"/>
<line class="st2" x1="1368.7" y1="-183" x2="1361.4" y2="1053.8"/>
<polyline class="st2" points="1098,1121 1103.9,104.7 1184.9,111.7 1184.9,1098.8 "/>
<line class="st2" x1="1304.9" y1="-196.6" x2="1304.9" y2="1068.2"/>
<polyline class="st2" points="1255,1081 1257,33.7 1304.9,40.7 "/>
<polyline class="st2" points="844.4,1068.2 854.9,-7.3 791.9,8.7 791.9,1027.3 "/>
<line class="st2" x1="819.5" y1="1.7" x2="818.9" y2="1048.3"/>
<polyline class="st2" points="613.2,888 608.9,48.7 633.9,40.7 633.9,904.2 "/>
<polyline class="st2" points="633.9,40.7 654.4,34.7 654.4,920.2 "/>
<g>
	<path class="st4" d="M1457-218.8c0,0,1.1-1.9-1.6-4.8c-2.8-2.9-9.2-6.5-17.2-6.6s-16.6,7.1-17.2,15.6c-0.6,8.5,6.8,17,17.3,21.8
		s5.1,10.6,3.5,11.6c-1.6,1.1-4.2,2.9-9.2,0.6c-5-2.2-9.5-6.7-9.5-6.7s-2-2.2-4,0.4s-0.1,5.5,3,8.4c3.1,2.9,7.3,6.9,15.4,8.7
		c8.1,1.8,20.3-5.3,21.2-17.1s-10-18.1-14.4-20.3s-9.8-4.6-7.9-9.8c2-5.5,10.9-3.8,13.2-2.4C1451.6-218.1,1455.1-215.9,1457-218.8z"
		/>
	<path class="st4" d="M1465.6-219.9l-2.7,47.9c0,0-0.2,5.1,4.9,5.1c5.1,0,6.2-1.6,6.5-7.7c0.3-6.1,2.6-44.5,2.6-44.5s1-4.4-5.1-5
		C1465.8-224.8,1465.6-219.9,1465.6-219.9z"/>
	<polygon class="st4" points="1498.9,-220.3 1488.5,-220.7 1477.6,-197.8 1477.4,-192.6 1485.8,-166.3 1495.3,-166 1486.8,-192.8 
		1486.9,-195.8 	"/>
	<path class="st4" d="M1498.8-188.4l-4.1-0.3c0,0-1.5-0.7-1.2-4.1c0.3-3.5,2.2-3.8,2.2-3.8l3.7,0.3l0.4-5.5c0,0,0-2.3,2.7-2.1
		s2.6,1.7,2.6,1.7l-0.5,6.4l4.1,0.3c0,0,1.9-0.5,1.5,4.8c-0.4,5.2-3.1,4.3-3.1,4.3l-3.4-0.2l-0.4,5.3c0,0-0.3,1.9-2.4,1.6
		c-2.2-0.3-2.6-1.9-2.6-1.9L1498.8-188.4z"/>
	<path class="st4" d="M1513.8-165.2c-0.3-0.7-0.4-1.5-0.3-2.3l0.8-43.9c0,0-0.4-4.3,5.2-3.8c5.6,0.5,18.1,1.1,18.1,1.1
		s1.6,0.4,1.3,5.4c-0.3,5-1.2,4.6-2.6,4.6s-11.4-0.6-11.4-0.6l-0.3,10.6l11,0.2c0,0,2.3,0,2.2,3.8c-0.1,3.8-0.5,4.9-1.5,5.1
		c-1,0.2-12,0.3-12,0.3l-0.3,18.6c0,0,0,3.5-4.7,3.5C1515.4-162.7,1514.5-163.6,1513.8-165.2z"/>
</g>
</svg>
